# xmcd
#
# Track frame offsets:
#       150
#       16610
#       38340
#       54370
#       73310
#       93032
#       107090
#       128452
#       147045
#       162262
#
# Disc length: 2453 seconds
#
# Revision: 0
# Processed by: cddbd v1.5.1PL2 Copyright (c) Steve Scherf et al.
# Submitted via: WaveLab 4.01
#
DISCID=6e09930a
DTITLE=Terri McFarland - My Father, My Friend
DYEAR=1996
DGENRE=Inspirational
TTITLE0=Come, Bless The Lord
TTITLE1=Say The Name
TTITLE2=God Is Your Refuge
TTITLE3=My Father, My Friend
TTITLE4=How Great His Heart Must Be
TTITLE5=Runnin' To Win
TTITLE6=Holy, Holy
TTITLE7=Teach Me To Love
TTITLE8=In Christ
TTITLE9=You And I
EXTD=
EXTT0=
EXTT1=
EXTT2=
EXTT3=
EXTT4=
EXTT5=
EXTT6=
EXTT7=
EXTT8=
EXTT9=
PLAYORDER=
